<svg width="136" height="100" viewBox="0 0 136 100" fill="none" xmlns="http://www.w3.org/2000/svg">
<g opacity="0.5">
<path d="M95.2634 82.847H130.581L135.914 86.8416V65.996C135.914 65.5927 135.835 65.1933 135.681 64.8206C135.526 64.4479 135.3 64.1093 135.015 63.8241C134.73 63.5389 134.391 63.3126 134.018 63.1583C133.646 63.004 133.246 62.9245 132.843 62.9246H95.2634C94.8599 62.9244 94.4604 63.0037 94.0876 63.158C93.7149 63.3123 93.3761 63.5385 93.0908 63.8238C92.8055 64.109 92.5792 64.4476 92.4247 64.8204C92.2703 65.1931 92.1909 65.5926 92.1909 65.996V79.7755C92.1909 80.1789 92.2703 80.5784 92.4247 80.9512C92.5792 81.3239 92.8055 81.6625 93.0908 81.9478C93.3761 82.233 93.7149 82.4592 94.0876 82.6135C94.4604 82.7678 94.8599 82.8471 95.2634 82.847Z" fill="#F4F3F0"/>
<path opacity="0.11" d="M95.2634 82.847H130.581L135.914 86.8416V65.996C135.914 65.5927 135.835 65.1933 135.681 64.8206C135.526 64.4479 135.3 64.1093 135.015 63.8241C134.73 63.5389 134.391 63.3126 134.018 63.1583C133.646 63.004 133.246 62.9245 132.843 62.9246H95.2634C94.8599 62.9244 94.4604 63.0037 94.0876 63.158C93.7149 63.3123 93.3761 63.5385 93.0908 63.8238C92.8055 64.109 92.5792 64.4476 92.4247 64.8204C92.2703 65.1931 92.1909 65.5926 92.1909 65.996V79.7755C92.1909 80.1789 92.2703 80.5784 92.4247 80.9512C92.5792 81.3239 92.8055 81.6625 93.0908 81.9478C93.3761 82.233 93.7149 82.4592 94.0876 82.6135C94.4604 82.7678 94.8599 82.8471 95.2634 82.847Z" fill="white"/>
<path d="M95.9568 71.2158H132.15C132.168 71.2165 132.186 71.2137 132.203 71.2073C132.22 71.2009 132.235 71.1912 132.248 71.1787C132.261 71.1663 132.272 71.1513 132.279 71.1347C132.286 71.1181 132.29 71.1002 132.29 71.0822C132.29 71.0641 132.286 71.0463 132.279 71.0297C132.272 71.0131 132.261 70.9981 132.248 70.9856C132.235 70.9732 132.22 70.9634 132.203 70.9571C132.186 70.9507 132.168 70.9478 132.15 70.9486H95.9568C95.9388 70.9478 95.9208 70.9507 95.9039 70.9571C95.887 70.9634 95.8716 70.9732 95.8586 70.9856C95.8456 70.9981 95.8352 71.0131 95.8281 71.0297C95.821 71.0463 95.8174 71.0641 95.8174 71.0822C95.8174 71.1002 95.821 71.1181 95.8281 71.1347C95.8352 71.1513 95.8456 71.1663 95.8586 71.1787C95.8716 71.1912 95.887 71.2009 95.9039 71.2073C95.9208 71.2137 95.9388 71.2165 95.9568 71.2158Z" fill="white"/>
<path d="M95.9568 67.4135H132.15C132.168 67.4143 132.186 67.4114 132.203 67.405C132.22 67.3987 132.235 67.389 132.248 67.3765C132.261 67.364 132.272 67.349 132.279 67.3324C132.286 67.3158 132.29 67.298 132.29 67.2799C132.29 67.2619 132.286 67.2441 132.279 67.2275C132.272 67.2109 132.261 67.1959 132.248 67.1834C132.235 67.1709 132.22 67.1612 132.203 67.1548C132.186 67.1485 132.168 67.1456 132.15 67.1464H95.9568C95.9388 67.1456 95.9208 67.1485 95.9039 67.1548C95.887 67.1612 95.8716 67.1709 95.8586 67.1834C95.8456 67.1959 95.8352 67.2109 95.8281 67.2275C95.821 67.2441 95.8174 67.2619 95.8174 67.2799C95.8174 67.298 95.821 67.3158 95.8281 67.3324C95.8352 67.349 95.8456 67.364 95.8586 67.3765C95.8716 67.389 95.887 67.3987 95.9039 67.405C95.9208 67.4114 95.9388 67.4143 95.9568 67.4135Z" fill="white"/>
<path d="M95.9568 75.2244H132.15C132.168 75.2252 132.186 75.2223 132.203 75.216C132.22 75.2096 132.235 75.1999 132.248 75.1874C132.261 75.1749 132.272 75.1599 132.279 75.1433C132.286 75.1268 132.29 75.1089 132.29 75.0909C132.29 75.0728 132.286 75.055 132.279 75.0384C132.272 75.0218 132.261 75.0068 132.248 74.9943C132.235 74.9818 132.22 74.9721 132.203 74.9658C132.186 74.9594 132.168 74.9565 132.15 74.9573H95.9568C95.9388 74.9565 95.9208 74.9594 95.9039 74.9658C95.887 74.9721 95.8716 74.9818 95.8586 74.9943C95.8456 75.0068 95.8352 75.0218 95.8281 75.0384C95.821 75.055 95.8174 75.0728 95.8174 75.0909C95.8174 75.1089 95.821 75.1268 95.8281 75.1433C95.8352 75.1599 95.8456 75.1749 95.8586 75.1874C95.8716 75.1999 95.887 75.2096 95.9039 75.216C95.9208 75.2223 95.9388 75.2252 95.9568 75.2244Z" fill="white"/>
<path d="M95.9568 79.2331H117.452C117.487 79.2316 117.519 79.2169 117.543 79.192C117.567 79.1671 117.58 79.134 117.58 79.0995C117.58 79.0651 117.567 79.0319 117.543 79.007C117.519 78.9821 117.487 78.9674 117.452 78.9659H95.9568C95.9388 78.9652 95.9208 78.9681 95.9039 78.9744C95.887 78.9808 95.8716 78.9905 95.8586 79.003C95.8456 79.0155 95.8352 79.0304 95.8281 79.047C95.821 79.0636 95.8174 79.0815 95.8174 79.0995C95.8174 79.1176 95.821 79.1354 95.8281 79.152C95.8352 79.1686 95.8456 79.1836 95.8586 79.1961C95.8716 79.2086 95.887 79.2183 95.9039 79.2246C95.9208 79.231 95.9388 79.2339 95.9568 79.2331Z" fill="white"/>
</g>
<g opacity="0.9">
<path d="M93.1127 52.8423H130.942L135.913 56.5661V40.8135C135.913 40.0541 135.612 39.3259 135.075 38.7889C134.538 38.252 133.81 37.9503 133.05 37.9503H93.1112C92.3519 37.9503 91.6236 38.252 91.0867 38.7889C90.5497 39.3259 90.248 40.0541 90.248 40.8135V49.9791C90.248 50.3552 90.3222 50.7277 90.4661 51.0752C90.6101 51.4226 90.8211 51.7383 91.0872 52.0042C91.3532 52.2701 91.669 52.481 92.0166 52.6248C92.3641 52.7686 92.7366 52.8425 93.1127 52.8423Z" fill="#F4F3F0"/>
<path opacity="0.11" d="M93.1127 52.8423H130.942L135.913 56.5661V40.8135C135.913 40.0541 135.612 39.3259 135.075 38.7889C134.538 38.252 133.81 37.9503 133.05 37.9503H93.1112C92.3519 37.9503 91.6236 38.252 91.0867 38.7889C90.5497 39.3259 90.248 40.0541 90.248 40.8135V49.9791C90.248 50.3552 90.3222 50.7277 90.4661 51.0752C90.6101 51.4226 90.8211 51.7383 91.0872 52.0042C91.3532 52.2701 91.669 52.481 92.0166 52.6248C92.3641 52.7686 92.7366 52.8425 93.1127 52.8423Z" fill="white"/>
<path d="M93.7587 41.9997H132.405C132.437 41.9983 132.467 41.9846 132.49 41.9614C132.512 41.9382 132.524 41.9073 132.524 41.8752C132.524 41.8431 132.512 41.8123 132.49 41.7891C132.467 41.7659 132.437 41.7522 132.405 41.7507H93.7587C93.7267 41.7522 93.6964 41.7659 93.6742 41.7891C93.652 41.8123 93.6396 41.8431 93.6396 41.8752C93.6396 41.9073 93.652 41.9382 93.6742 41.9614C93.6964 41.9846 93.7267 41.9983 93.7587 41.9997Z" fill="white"/>
<path d="M93.7587 45.7364H132.405C132.437 45.735 132.467 45.7213 132.49 45.6981C132.512 45.6749 132.524 45.644 132.524 45.6119C132.524 45.5798 132.512 45.549 132.49 45.5258C132.467 45.5026 132.437 45.4889 132.405 45.4874H93.7587C93.7267 45.4889 93.6964 45.5026 93.6742 45.5258C93.652 45.549 93.6396 45.5798 93.6396 45.6119C93.6396 45.644 93.652 45.6749 93.6742 45.6981C93.6964 45.7213 93.7267 45.735 93.7587 45.7364Z" fill="white"/>
<path d="M93.7587 49.4732H118.703C118.72 49.474 118.737 49.4713 118.753 49.4654C118.769 49.4595 118.783 49.4504 118.795 49.4388C118.807 49.4272 118.817 49.4132 118.824 49.3977C118.83 49.3822 118.834 49.3656 118.834 49.3487C118.834 49.3319 118.83 49.3153 118.824 49.2998C118.817 49.2843 118.807 49.2703 118.795 49.2587C118.783 49.2471 118.769 49.238 118.753 49.2321C118.737 49.2262 118.72 49.2235 118.703 49.2242H93.7587C93.7267 49.2257 93.6964 49.2394 93.6742 49.2626C93.652 49.2858 93.6396 49.3166 93.6396 49.3487C93.6396 49.3808 93.652 49.4117 93.6742 49.4349C93.6964 49.4581 93.7267 49.4718 93.7587 49.4732Z" fill="white"/>
</g>
<path d="M121.834 28.4521H71.3947L63.7783 34.1569V4.38667C63.7783 3.22325 64.2405 2.10749 65.0632 1.28483C65.8858 0.462166 67.0016 0 68.165 0H121.834C122.997 6.5062e-05 124.113 0.462259 124.935 1.28491C125.758 2.10756 126.22 3.22329 126.22 4.38667V24.0657C126.22 25.2291 125.758 26.3448 124.935 27.1674C124.113 27.99 122.997 28.4521 121.834 28.4521Z" fill="#F3F2EE"/>
<path opacity="0.11" d="M121.834 28.4521H71.3947L63.7783 34.1569V4.38667C63.7783 3.22325 64.2405 2.10749 65.0632 1.28483C65.8858 0.462166 67.0016 0 68.165 0H121.834C122.997 6.5062e-05 124.113 0.462259 124.935 1.28491C125.758 2.10756 126.22 3.22329 126.22 4.38667V24.0657C126.22 25.2291 125.758 26.3448 124.935 27.1674C124.113 27.99 122.997 28.4521 121.834 28.4521Z" fill="white"/>
<path d="M69.1547 11.8413H120.845C120.895 11.8413 120.944 11.8212 120.98 11.7854C121.016 11.7496 121.036 11.7011 121.036 11.6505C121.036 11.5998 121.016 11.5513 120.98 11.5155C120.944 11.4797 120.895 11.4596 120.845 11.4596H69.1547C69.1041 11.4596 69.0556 11.4797 69.0198 11.5155C68.984 11.5513 68.9639 11.5998 68.9639 11.6505C68.9639 11.7011 68.984 11.7496 69.0198 11.7854C69.0556 11.8212 69.1041 11.8413 69.1547 11.8413Z" fill="white"/>
<path d="M69.1547 6.41102H120.845C120.895 6.41102 120.944 6.39091 120.98 6.35512C121.016 6.31933 121.036 6.27078 121.036 6.22016C121.036 6.16954 121.016 6.12099 120.98 6.0852C120.944 6.04941 120.895 6.0293 120.845 6.0293H69.1547C69.1041 6.0293 69.0556 6.04941 69.0198 6.0852C68.984 6.12099 68.9639 6.16954 68.9639 6.22016C68.9639 6.27078 68.984 6.31933 69.0198 6.35512C69.0556 6.39091 69.1041 6.41102 69.1547 6.41102Z" fill="white"/>
<path d="M69.1547 17.5661H120.845C120.895 17.5661 120.944 17.5459 120.98 17.5102C121.016 17.4744 121.036 17.4258 121.036 17.3752C121.036 17.3246 121.016 17.276 120.98 17.2402C120.944 17.2044 120.895 17.1843 120.845 17.1843H69.1547C69.1041 17.1843 69.0556 17.2044 69.0198 17.2402C68.984 17.276 68.9639 17.3246 68.9639 17.3752C68.9639 17.4258 68.984 17.4744 69.0198 17.5102C69.0556 17.5459 69.1041 17.5661 69.1547 17.5661Z" fill="white"/>
<path d="M69.1547 23.291H99.8528C99.9034 23.291 99.952 23.2709 99.9878 23.2351C100.024 23.1993 100.044 23.1508 100.044 23.1002C100.044 23.0495 100.024 23.001 99.9878 22.9652C99.952 22.9294 99.9034 22.9093 99.8528 22.9093H69.1547C69.1041 22.9093 69.0556 22.9294 69.0198 22.9652C68.984 23.001 68.9639 23.0495 68.9639 23.1002C68.9639 23.1508 68.984 23.1993 69.0198 23.2351C69.0556 23.2709 69.1041 23.291 69.1547 23.291Z" fill="white"/>
<path d="M2.57964 90.0755C1.14034 86.9734 0.394025 83.595 0.39258 80.1753C0.391135 76.7556 1.1346 73.3766 2.57127 70.2733C4.00794 67.17 6.10334 64.4169 8.71175 62.2054C11.3202 59.9939 14.379 58.3772 17.6755 57.4675L19.6774 64.7046C17.4318 65.3236 15.3479 66.4243 13.5709 67.9302C11.7938 69.4362 10.3661 71.3112 9.38711 73.4248C8.40814 75.5385 7.90137 77.84 7.90206 80.1693C7.90275 82.4987 8.41088 84.7999 9.3911 86.913L2.57964 90.0755Z" fill="#EA6852"/>
<path d="M2.9725 99.9973C2.55657 99.9976 2.14867 99.8827 1.794 99.6654C1.43932 99.4481 1.15172 99.1369 0.963043 98.7662C0.435946 97.7311 0.117905 96.6022 0.0270797 95.4441C-0.0637457 94.286 0.0744233 93.1213 0.433696 92.0166C1.15928 89.7856 2.74142 87.9342 4.83207 86.8697C5.86726 86.3426 6.99613 86.0245 8.15422 85.9337C9.31232 85.8429 10.477 85.981 11.5817 86.3403C13.8127 87.0659 15.6641 88.648 16.7286 90.7387C16.9929 91.2704 17.0366 91.8849 16.8502 92.4486C16.6638 93.0123 16.2625 93.4797 15.7334 93.7491C15.2044 94.0185 14.5903 94.0682 14.0248 93.8874C13.4593 93.7066 12.988 93.3099 12.7134 92.7835C12.1912 91.7576 11.2828 90.9813 10.1881 90.6252C9.09349 90.2691 7.90221 90.3624 6.87637 90.8847C5.85053 91.4069 5.07417 92.3153 4.71807 93.4099C4.36197 94.5046 4.45531 95.6959 4.97755 96.7217C5.15228 97.0651 5.23606 97.4475 5.22088 97.8325C5.20571 98.2175 5.09209 98.5921 4.89087 98.9207C4.68966 99.2492 4.40757 99.5207 4.07155 99.7092C3.73553 99.8977 3.3568 99.9969 2.97152 99.9973H2.9725Z" fill="#292A2E"/>
<path d="M60.8914 68.3735C56.7298 68.3766 52.6429 67.2681 49.0532 65.1625L52.844 58.6797C56.0421 60.5442 59.7868 61.2449 63.4427 60.663C67.0986 60.0811 70.4406 58.2523 72.9018 55.4871L78.5129 60.478C74.5105 64.9917 68.9222 67.7889 62.9102 68.2879C62.2357 68.3451 61.5628 68.3737 60.8914 68.3735Z" fill="#EA6852"/>
<path d="M80.2943 61.715C78.6175 61.7118 76.9762 61.2322 75.5616 60.332C74.147 59.4318 73.0174 58.1481 72.3044 56.6304C71.5914 55.1128 71.3244 53.4238 71.5346 51.7603C71.7448 50.0968 72.4234 48.5272 73.4914 47.2346C73.6799 47.0065 73.9114 46.8178 74.1728 46.6792C74.4342 46.5406 74.7204 46.4549 75.0149 46.4269C75.3094 46.3989 75.6066 46.4291 75.8895 46.516C76.1723 46.6028 76.4353 46.7445 76.6633 46.933C76.8914 47.1214 77.0801 47.353 77.2187 47.6144C77.3573 47.8758 77.4431 48.1619 77.4711 48.4565C77.4991 48.751 77.4688 49.0482 77.382 49.331C77.2951 49.6139 77.1534 49.8768 76.965 50.1049C76.2365 50.9927 75.8896 52.1329 76.0003 53.2759C76.111 54.4189 76.6702 55.4715 77.5555 56.203C78.4407 56.9344 79.5798 57.2852 80.7232 57.1784C81.8665 57.0717 82.921 56.5161 83.6555 55.6333C83.8439 55.4053 84.0755 55.2165 84.3369 55.0779C84.5983 54.9393 84.8844 54.8536 85.179 54.8256C85.4735 54.7976 85.7707 54.8279 86.0535 54.9147C86.3364 55.0015 86.5993 55.1432 86.8274 55.3317C87.0555 55.5202 87.2442 55.7517 87.3828 56.0131C87.5214 56.2745 87.6072 56.5607 87.6352 56.8552C87.6632 57.1497 87.6329 57.4469 87.5461 57.7298C87.4592 58.0126 87.3175 58.2756 87.129 58.5036C86.3912 59.4014 85.4827 60.144 84.456 60.6884C83.4293 61.2327 82.3049 61.5681 81.1478 61.675C80.8622 61.702 80.5777 61.7153 80.2943 61.715Z" fill="#292A2E"/>
<path d="M12.6328 57.8618L17.6117 86.0174C18.2553 89.6571 20.1602 92.9538 22.9922 95.329C25.8241 97.7042 29.4022 99.0061 33.0984 99.0061C36.7018 99.0061 40.1959 97.7687 42.9962 95.5008C45.7964 93.233 47.733 90.0723 48.4818 86.5475L54.5761 57.8618H12.6328Z" fill="#EA6852"/>
<path d="M33.6042 64.0622C45.1864 64.0622 54.5756 61.2862 54.5756 57.8619C54.5756 54.4375 45.1864 51.6615 33.6042 51.6615C22.022 51.6615 12.6328 54.4375 12.6328 57.8619C12.6328 61.2862 22.022 64.0622 33.6042 64.0622Z" fill="#292A2E"/>
<path d="M54.0952 41.2197C54.0952 50.336 44.92 54.7222 33.6036 54.7222C22.2872 54.7222 13.1123 50.336 13.1123 41.2197C13.1123 32.1034 22.2875 21.7092 33.6036 21.7092C44.9198 21.7092 54.0952 32.1034 54.0952 41.2197Z" fill="#EA6852"/>
<path d="M44.8029 30.157H33.1469C29.4935 30.157 26.5317 33.1187 26.5317 36.7722V36.7724C26.5317 40.4259 29.4935 43.3876 33.1469 43.3876H44.8029C48.4563 43.3876 51.4181 40.4259 51.4181 36.7724V36.7722C51.4181 33.1187 48.4563 30.157 44.8029 30.157Z" fill="white"/>
<path d="M38.6275 39.1771C38.4283 39.1771 38.2373 39.098 38.0965 38.9572C37.9557 38.8163 37.8766 38.6253 37.8766 38.4262C37.8799 38.0883 37.8162 37.7531 37.6892 37.4401C37.5622 37.127 37.3744 36.8422 37.1366 36.6021C36.8989 36.362 36.616 36.1714 36.3041 36.0414C35.9923 35.9113 35.6578 35.8443 35.3199 35.8443C34.982 35.8443 34.6475 35.9113 34.3357 36.0414C34.0238 36.1714 33.7409 36.362 33.5031 36.6021C33.2654 36.8422 33.0776 37.127 32.9506 37.4401C32.8236 37.7531 32.7599 38.0883 32.7632 38.4262C32.7632 38.6253 32.6841 38.8163 32.5433 38.9572C32.4025 39.098 32.2115 39.1771 32.0123 39.1771C31.8131 39.1771 31.6221 39.098 31.4813 38.9572C31.3405 38.8163 31.2614 38.6253 31.2614 38.4262C31.2572 37.8905 31.3591 37.3594 31.5612 36.8633C31.7633 36.3673 32.0616 35.9161 32.4388 35.5359C32.8161 35.1556 33.265 34.8539 33.7594 34.6479C34.2539 34.442 34.7842 34.3359 35.3199 34.3359C35.8555 34.3359 36.3859 34.442 36.8804 34.6479C37.3748 34.8539 37.8237 35.1556 38.2009 35.5359C38.5782 35.9161 38.8765 36.3673 39.0786 36.8633C39.2807 37.3594 39.3826 37.8905 39.3784 38.4262C39.3785 38.5248 39.3591 38.6224 39.3213 38.7136C39.2836 38.8047 39.2283 38.8875 39.1586 38.9572C39.0888 39.027 39.006 39.0823 38.9149 39.12C38.8238 39.1577 38.7261 39.1771 38.6275 39.1771Z" fill="#292A2E"/>
<path d="M48.8414 39.1771C48.6422 39.1771 48.4512 39.098 48.3104 38.9572C48.1696 38.8163 48.0904 38.6253 48.0904 38.4262C48.0937 38.0883 48.0301 37.7531 47.9031 37.4401C47.7761 37.127 47.5883 36.8422 47.3505 36.6021C47.1128 36.362 46.8298 36.1714 46.518 36.0414C46.2062 35.9113 45.8716 35.8443 45.5338 35.8443C45.1959 35.8443 44.8614 35.9113 44.5495 36.0414C44.2377 36.1714 43.9548 36.362 43.717 36.6021C43.4793 36.8422 43.2915 37.127 43.1645 37.4401C43.0375 37.7531 42.9738 38.0883 42.9771 38.4262C42.9771 38.6253 42.898 38.8163 42.7572 38.9572C42.6163 39.098 42.4253 39.1771 42.2262 39.1771C42.027 39.1771 41.836 39.098 41.6952 38.9572C41.5543 38.8163 41.4752 38.6253 41.4752 38.4262C41.4711 37.8905 41.573 37.3594 41.7751 36.8633C41.9772 36.3673 42.2754 35.9161 42.6527 35.5359C43.03 35.1556 43.4788 34.8539 43.9733 34.6479C44.4678 34.442 44.9981 34.3359 45.5338 34.3359C46.0694 34.3359 46.5998 34.442 47.0942 34.6479C47.5887 34.8539 48.0375 35.1556 48.4148 35.5359C48.7921 35.9161 49.0904 36.3673 49.2925 36.8633C49.4946 37.3594 49.5965 37.8905 49.5923 38.4262C49.5923 38.5248 49.5729 38.6224 49.5352 38.7136C49.4975 38.8047 49.4422 38.8875 49.3724 38.9572C49.3027 39.027 49.2199 39.0823 49.1288 39.12C49.0377 39.1577 48.94 39.1771 48.8414 39.1771Z" fill="#292A2E"/>
<path d="M33.599 14.6536L32.689 14.6981L33.1378 23.8687L34.0478 23.8242L33.599 14.6536Z" fill="#367CFF"/>
<path d="M33.1775 17.02C34.0972 17.02 34.8427 16.2744 34.8427 15.3547C34.8427 14.435 34.0972 13.6895 33.1775 13.6895C32.2578 13.6895 31.5122 14.435 31.5122 15.3547C31.5122 16.2744 32.2578 17.02 33.1775 17.02Z" fill="#292A2E"/>
</svg>
