<?xml version="1.0" encoding="UTF-8" standalone="no"?>
<svg
   width="15"
   height="17"
   viewBox="0 0 15 17"
   fill="none"
   version="1.1"
   id="svg11"
   xmlns="http://www.w3.org/2000/svg">
  <path
     d="M9.4 2L9 0H0V17H2V10H7.6L8 12H15V2H9.4ZM13 10H9.64L9.24 8H2V2H7.36L7.76 4H13V10Z"
     fill="#002B2B"
     id="path9" />
  <path
     style="fill:#808080;fill-rule:evenodd;stroke-width:0.0150977"
     d="M 9.6594698,9.9871226 C 9.6577909,9.9829707 9.5654776,9.5311723 9.4543296,8.9831261 L 9.2522415,7.9866785 5.6376662,7.9790074 2.0230906,7.9713362 V 4.9970494 2.0227625 l 2.6636151,0.00771 2.6636151,0.00771 0.1968204,0.9888987 0.1968205,0.9888988 h 2.6200263 2.620026 v 2.9893428 2.9893428 h -1.660746 c -0.91341,0 -1.6621194,-0.0034 -1.6637982,-0.00755 z"
     id="path302" />
</svg>
