<svg width="167" height="153" viewBox="0 0 167 153" fill="none" xmlns="http://www.w3.org/2000/svg">
<path d="M140.25 25.5H12.75V127.5H140.25V25.5ZM127.5 46L76.5 77.875L25.5 46V38.25L76.5 70.125L127.5 38.25V46Z" fill="currentColor"/>
<circle cx="134" cy="39" r="33" transform="rotate(-90 134 39)" fill="white"/>
<path d="M134 11C118.544 11 106 23.544 106 39C106 54.456 118.544 67 134 67C149.456 67 162 54.456 162 39C162 23.544 149.456 11 134 11ZM134 61.4C121.624 61.4 111.6 51.376 111.6 39C111.6 33.82 113.364 29.06 116.332 25.28L147.72 56.668C143.94 59.636 139.18 61.4 134 61.4ZM151.668 52.72L120.28 21.332C124.06 18.364 128.82 16.6 134 16.6C146.376 16.6 156.4 26.624 156.4 39C156.4 44.18 154.636 48.94 151.668 52.72Z" fill="#D23228"/>
</svg>
